<svg width="25" height="25" xmlns="http://www.w3.org/2000/svg"><g fill="#63962F"><path d="M24.566 11.968L13.48.836a1.104 1.104 0 0 0-1.568 0L.825 11.968a1.115 1.115 0 0 0 0 1.574l11.087 11.132a1.103 1.103 0 0 0 1.567 0l11.087-11.132a1.115 1.115 0 0 0 0-1.574zm-11.87 10.345l-9.52-9.558 9.52-9.558 9.519 9.558-9.52 9.558z"/><path d="M9.37 10.529v7.792h2.217v-7.792c0-.614.498-1.113 1.109-1.113.61 0 1.108.5 1.108 1.113v2.226h-1.108l2.217 3.34 2.217-3.34h-1.108V10.53a3.337 3.337 0 0 0-3.326-3.34 3.337 3.337 0 0 0-3.326 3.34z"/></g></svg>