<svg width="49" height="48" xmlns="http://www.w3.org/2000/svg"><g fill="#FFF"><path d="M48.133 22.457L25.959.64a2.24 2.24 0 0 0-3.135 0L.65 22.457a2.155 2.155 0 0 0 0 3.086L22.824 47.36c.432.425 1 .639 1.567.639a2.23 2.23 0 0 0 1.568-.64l22.174-21.817a2.155 2.155 0 0 0 0-3.086zM24.39 42.733L5.353 24 24.39 5.267 43.43 24 24.39 42.733z"/><path d="M17.74 19.636V34.91h4.434V19.636c0-1.202.996-2.181 2.217-2.181 1.222 0 2.218.98 2.218 2.181V24H24.39l4.435 6.545L33.261 24h-2.218v-4.364c0-3.608-2.984-6.545-6.652-6.545-3.667 0-6.652 2.937-6.652 6.545z"/></g></svg>