<svg width="77" height="22" xmlns="http://www.w3.org/2000/svg"><g fill="#FFF" fill-rule="evenodd"><text font-family="OpenSans-Bold, Open Sans" font-size="18" font-weight="bold" transform="translate(0 -1)"><tspan x="31" y="19">Pivot</tspan></text><g fill-rule="nonzero"><path d="M21.707 10.293l-10-10a.999.999 0 0 0-1.414 0l-10 10a.999.999 0 0 0 0 1.414l10 10a.997.997 0 0 0 1.414 0l10-10a.999.999 0 0 0 0-1.414zM11 19.586L2.414 11 11 2.414 19.586 11 11 19.586z"/><path d="M8 9v7h2V9c0-.551.449-1 1-1 .551 0 1 .449 1 1v2h-1l2 3 2-3h-1V9c0-1.654-1.346-3-3-3S8 7.346 8 9z"/></g></g></svg>