<svg width="32" height="25" xmlns="http://www.w3.org/2000/svg"><path d="M1.25 12.336h17.61c.316 0 .619-.118.85-.332l10.639-9.836A1.25 1.25 0 0 0 29.499 0h-17.61a1.25 1.25 0 0 0-.85.332L.402 10.168a1.251 1.251 0 0 0 .849 2.168zM12.377 2.5h13.93l-7.935 7.336H4.442L12.378 2.5zM1.25 18.476a1.25 1.25 0 1 1 0-2.5h18.972l9.007-9.034a1.25 1.25 0 0 1 1.769 1.766l-9.373 9.401a1.245 1.245 0 0 1-.885.367H1.25zm30.383-4.419a1.25 1.25 0 0 1 .003 1.767l-8.781 8.809a1.255 1.255 0 0 1-.886.367H1.249a1.25 1.25 0 0 1 0-2.5h20.2l8.415-8.442a1.25 1.25 0 0 1 1.769-.001z" fill="#DDD" fill-rule="evenodd"/></svg>