<svg width="32" height="29" xmlns="http://www.w3.org/2000/svg"><g fill="#DDD"><path d="M30.4 6.444h-8V1.611C22.4.723 21.685 0 20.8 0h-9.6c-.885 0-1.6.722-1.6 1.611v4.833h-8c-.885 0-1.6.722-1.6 1.612v19.333C0 28.279.715 29 1.6 29h28.8c.885 0 1.6-.72 1.6-1.611V8.056c0-.89-.715-1.612-1.6-1.612zM12.8 3.222h6.4v3.222h-6.4V3.222zm16 22.556H3.2V9.667h25.6v16.11z"/><path d="M17.894 16.111h-3.787c-.664-1.872-2.42-3.222-4.507-3.222-2.086 0-3.843 1.35-4.506 3.222H9.6v3.222H5.094c.661 1.874 2.418 3.223 4.506 3.223s3.846-1.347 4.506-3.223h3.787c.66 1.876 2.419 3.223 4.505 3.223 2.087 0 3.847-1.347 4.506-3.223H22.4v-3.222h4.506c-.663-1.872-2.421-3.222-4.506-3.222-2.085 0-3.843 1.35-4.506 3.222z"/></g></svg>