<?xml version="1.0" encoding="UTF-8"?>
<svg width="32px" height="29px" viewBox="0 0 32 29" version="1.1" xmlns="http://www.w3.org/2000/svg" xmlns:xlink="http://www.w3.org/1999/xlink">
    <!-- Generator: Sketch 50.2 (55047) - http://www.bohemiancoding.com/sketch -->
    <title>Group</title>
    <desc>Created with Sketch.</desc>
    <defs></defs>
    <g id="Page-1" stroke="none" stroke-width="1" fill="none" fill-rule="evenodd">
        <g id="1.1---Landing" transform="translate(-958.000000, -1135.000000)" fill="#DDDDDD" fill-rule="nonzero">
            <g id="Content-#15" transform="translate(0.000000, 800.000000)">
                <g id="Switcher" transform="translate(0.000000, 335.000000)">
                    <g id="Group" transform="translate(958.000000, 0.000000)">
                        <path d="M30.4,6.44444444 L22.4,6.44444444 L22.4,1.61111111 C22.4,0.723388889 21.6848,0 20.8,0 L11.2,0 C10.3152,0 9.6,0.721777778 9.6,1.61111111 L9.6,6.44444444 L1.6,6.44444444 C0.7152,6.44444444 0,7.16622222 0,8.05555556 L0,27.3888889 C0,28.2798333 0.7152,29 1.6,29 L30.4,29 C31.2848,29 32,28.2798333 32,27.3888889 L32,8.05555556 C32,7.16622222 31.2848,6.44444444 30.4,6.44444444 Z M12.8,3.22222222 L19.2,3.22222222 L19.2,6.44444444 L12.8,6.44444444 L12.8,3.22222222 Z M28.8,25.7777778 L3.2,25.7777778 L3.2,9.66666667 L28.8,9.66666667 L28.8,25.7777778 Z" id="Shape"></path>
                        <path d="M17.8944,16.1111111 L14.1072,16.1111111 C13.4432,14.239 11.6864,12.8888889 9.6,12.8888889 C7.5136,12.8888889 5.7568,14.239 5.0944,16.1111111 L9.6,16.1111111 L9.6,19.3333333 L5.0944,19.3333333 C5.7552,21.2070556 7.512,22.5555556 9.6,22.5555556 C11.688,22.5555556 13.4464,21.2086667 14.1056,19.3333333 L17.8928,19.3333333 C18.5536,21.2086667 20.312,22.5555556 22.3984,22.5555556 C24.4848,22.5555556 26.2448,21.2086667 26.904,19.3333333 L22.4,19.3333333 L22.4,16.1111111 L26.9056,16.1111111 C26.2432,14.239 24.4848,12.8888889 22.4,12.8888889 C20.3152,12.8888889 18.5568,14.239 17.8944,16.1111111 Z" id="Shape"></path>
                    </g>
                </g>
            </g>
        </g>
    </g>
</svg>