<?xml version="1.0" encoding="UTF-8"?>
<svg width="92px" height="26px" viewBox="0 0 92 26" version="1.1" xmlns="http://www.w3.org/2000/svg" xmlns:xlink="http://www.w3.org/1999/xlink">
    <!-- Generator: Sketch 50.2 (55047) - http://www.bohemiancoding.com/sketch -->
    <title>morneau-logo</title>
    <desc>Created with Sketch.</desc>
    <defs></defs>
    <g id="Symbols" stroke="none" stroke-width="1" fill="none" fill-rule="evenodd">
        <g id="Pivot-MS-Logo-/-White" transform="translate(-126.000000, 0.000000)" fill="#FFFFFF" fill-rule="nonzero">
            <g id="Group-4">
                <g id="morneau-logo" transform="translate(126.000000, 0.000000)">
                    <g id="Shape" transform="translate(0.000000, 2.874328)">
                        <polygon points="8.85569624 10.0819106 8.35688591 3.14821035 6.00707834 10.109422 4.44174872 10.109422 2.07824201 3.14821035 1.60642708 10.0819106 0 10.0819106 0.715579255 0.588415994 2.9831919 0.588415994 5.34589278 7.75698993 7.69529744 0.588415994 9.92261847 0.588415994 10.6381977 10.0819106"></polygon>
                        <path d="M15.9599155,10.2609402 C13.3139645,10.2609402 11.5983471,8.27970699 11.5983471,5.34912433 C11.5983471,2.40499126 13.3272607,0.410207661 15.9861051,0.410207661 C18.6598573,0.410207661 20.3480764,2.39144086 20.3480764,5.3216129 C20.3480764,8.25260616 18.6332648,10.2609402 15.9599155,10.2609402 Z M15.9728088,1.92456788 C14.379678,1.92456788 13.4215432,3.25743481 13.4215432,5.33598454 C13.4215432,7.41330243 14.379678,8.74863307 15.9728088,8.74863307 C17.5796388,8.74863307 18.5377737,7.41330243 18.5377737,5.33598454 C18.5377737,3.25743481 17.5663426,1.92456788 15.9728088,1.92456788 Z"></path>
                        <path d="M28.5300966,9.8347184 L26.7077064,10.1788165 L24.2781215,6.44999192 L23.4682598,6.44999192 L23.4682598,10.0815 L21.6853554,10.0815 L21.6853554,0.588415994 L24.5742649,0.588415994 C26.6541186,0.588415994 27.9096056,1.59319892 27.9096056,3.43646438 C27.9096056,4.81244624 27.1940263,5.67926141 26.0469238,6.10589384 L28.5300966,9.8347184 Z M24.4396908,2.04734274 L23.4541577,2.04734274 L23.4541577,5.06004906 L24.3591076,5.06004906 C25.4659186,5.06004906 26.1545024,4.5241922 26.1545024,3.53254906 C26.1545024,2.58361022 25.5606039,2.04734274 24.4396908,2.04734274 Z"></path>
                        <polygon points="35.7406858 10.0819106 31.3537337 3.5469207 31.3537337 10.0819106 29.6937187 10.0819106 29.6937187 0.588415994 31.3807291 0.588415994 35.566223 6.80805109 35.566223 0.588415994 37.2266409 0.588415994 37.2266409 10.0819106"></polygon>
                        <polygon points="39.1453281 10.0819106 39.1453281 0.588415994 44.5597166 0.588415994 44.5597166 2.12987702 40.9145333 2.12987702 40.9145333 4.35871304 43.7224567 4.35871304 43.9658181 5.92727487 40.9149362 5.92727487 40.9149362 8.54168147 44.8240297 8.54168147 44.2466507 10.0827319 39.1453281 10.0827319"></polygon>
                        <path d="M52.2735482,10.1792272 L51.3835062,7.67445564 L47.8587948,7.67445564 L47.0082387,10.0827319 L45.2386305,10.0827319 L48.7355406,0.547764782 L50.6409316,0.547764782 L54.055647,9.84867943 L52.2735482,10.1792272 Z M49.6130922,2.52858737 L48.3447118,6.18842808 L50.8826813,6.18842808 L49.6130922,2.52858737 Z"></path>
                        <path d="M58.2818354,10.2473898 C56.027116,10.2473898 54.5564718,8.88536897 54.5564718,6.40893012 L54.5564718,0.588415994 L56.3389729,0.588415994 L56.3389729,6.31243481 C56.3389729,7.75698993 56.9872652,8.66486692 58.2959372,8.66486692 C59.6187116,8.66486692 60.2807027,7.81283398 60.2807027,6.35390725 L60.2807027,0.588415994 L62.0756948,0.588415994 L62.0756948,6.36704705 C62.0756948,8.88536897 60.5373606,10.2473898 58.2818354,10.2473898 Z"></path>
                    </g>
                    <g id="Shape" transform="translate(15.713733, 15.192876)">
                        <path d="M3.22655332,9.92094827 C2.09194116,9.92094827 1.11930134,9.659795 0.296143443,9.26149532 L0.56569441,7.59520634 C1.3489636,8.06495365 2.32160342,8.43574193 3.25314579,8.43574193 C4.0767066,8.43574193 4.64320684,8.03497852 4.64320684,7.27903025 C4.64320684,6.57810481 4.31966509,6.28944019 2.968284,5.69691801 C1.16039879,4.94138038 0.430314553,4.33571842 0.430314553,2.86324126 C0.430314553,1.18422312 1.70030657,0.207362231 3.44171059,0.207362231 C4.49412783,0.207362231 5.22421207,0.427043011 5.89909681,0.784691532 L5.62914288,2.43578763 C4.95385527,1.98246505 4.15809568,1.69297917 3.42841435,1.69297917 C2.53756653,1.69297917 2.14552902,2.13316196 2.14552902,2.71090188 C2.14552902,3.3177957 2.4424783,3.60646035 3.73906278,4.15668885 C5.6569441,4.95493078 6.35801837,5.62834475 6.35801837,7.10164314 C6.35801837,8.9580484 5.02114228,9.92094827 3.22655332,9.92094827 Z"></path>
                        <polygon points="13.2889837 9.81172378 13.2889837 5.68336763 9.33395781 5.68336763 9.33395781 9.81172378 7.53775718 9.81172378 7.53775718 0.316586694 9.33395781 0.316586694 9.33395781 4.05937231 13.2889837 4.05937231 13.2889837 0.316586694 15.0851843 0.316586694 15.0851843 9.81049193 13.2889837 9.81049193"></polygon>
                        <polygon points="16.9083803 9.81172378 16.9083803 0.316586694 22.322366 0.316586694 22.322366 1.85886895 18.6779885 1.85886895 18.6779885 4.08729435 21.485106 4.08729435 21.7284674 5.65544558 18.6775856 5.65544558 18.6775856 8.26985218 22.4565371 8.26985218 22.4565371 9.81049193 16.9083803 9.81049193"></polygon>
                        <path d="M26.4820733,6.31613038 L25.6855079,6.31613038 L25.6855079,9.81172378 L23.9042152,9.81172378 L23.9042152,0.316586694 L26.6303465,0.316586694 C28.7633851,0.316586694 30.0462704,1.32136962 30.0462704,3.23402957 C30.0462704,5.28465726 28.6159177,6.31613038 26.4820733,6.31613038 Z M26.5360641,1.77592406 L25.6855079,1.77592406 L25.6855079,4.84447446 L26.4683742,4.84447446 C27.6162825,4.84447446 28.2911673,4.3624086 28.2911673,3.27550202 C28.2915702,2.28385887 27.6831667,1.77592406 26.5360641,1.77592406 Z"></path>
                        <polygon points="31.1849118 9.81172378 31.1849118 0.316586694 36.5993003 0.316586694 36.5993003 1.85886895 32.954117 1.85886895 32.954117 4.08729435 35.7628462 4.08729435 36.0062076 5.65544558 32.9545199 5.65544558 32.9545199 8.26985218 36.7350831 8.26985218 36.7350831 9.81049193 31.1857176 9.81049193 31.1857176 9.81172378"></polygon>
                        <polygon points="38.337481 9.81172378 38.337481 0.316586694 40.1340846 0.316586694 40.1340846 8.20086827 43.2393601 8.20086827 43.4827215 9.81049193 38.337481 9.81049193"></polygon>
                        <polygon points="44.5536729 9.81172378 44.5536729 0.316586694 46.3494706 0.316586694 46.3494706 8.20086827 49.4539403 8.20086827 49.6964959 9.81049193 44.5536729 9.81049193"></polygon>
                    </g>
                    <g id="Shape" transform="translate(70.913259, 0.000000)">
                        <path d="M0.464159518,11.829502 L0.456907025,11.8586559 C0.42950872,11.9847157 0.403319164,12.1111862 0.381158771,12.2388885 L0.35980421,12.3752137 C0.344090476,12.474994 0.329182575,12.5747742 0.317498004,12.6753756 L0.294531777,12.9201042 L0.276400546,13.1328044 C0.267133473,13.28925 0.262298478,13.4461062 0.262298478,13.6029624 C0.262298478,18.2055827 3.63994538,21.8112218 7.95316381,21.8112218 C10.2920926,21.8112218 12.4940299,20.8273804 14.1612974,19.2616929 C12.9847819,19.8903495 11.6338037,20.2233609 10.2312523,20.2233609 C6.8685133,20.2233609 3.65485328,18.3850228 2.04318829,15.5398488 C1.03025685,13.7520168 0.766749623,11.6960511 1.21680707,9.76327083 C0.881983669,10.4194388 0.624923101,11.1129731 0.464159518,11.829502 Z"></path>
                        <path d="M7.62559292,0.872974462 C11.0669006,0.872974462 14.0432429,2.22965726 16.2866806,4.27371505 L16.3511472,4.33407594 C16.4603375,4.43549865 16.5699307,4.53651075 16.6779123,4.64121842 C17.1082268,5.06333401 17.5087256,5.51419288 17.8781998,5.98599327 L17.9708705,6.10794692 L18.2102028,6.4286398 L18.396753,6.69554167 L18.4934528,6.83761558 C19.4419177,8.25424865 20.1168024,9.81459814 20.4661308,11.3954785 C20.508437,9.17403359 20.0184908,6.99816731 19.0321519,5.25919892 C16.4841095,0.761286289 10.997599,-0.548996641 6.80767294,0.918142474 C7.08246182,0.89022043 7.3548332,0.872974462 7.62559292,0.872974462 Z"></path>
                    </g>
                    <path d="M78.5388527,1.59648387 C73.7244061,1.59648387 68.3394309,6.35719218 68.3394309,12.7283454 C68.3394309,19.5807433 74.7860904,24.7011532 80.5498075,24.7011532 C86.6769548,24.7011532 90.9470611,18.9759026 90.9470611,13.8390679 C90.9458527,8.04811827 85.8509766,1.59648387 78.5388527,1.59648387 Z M81.5212387,22.1508031 L81.4692625,22.165996 C81.0703753,22.278916 80.6634302,22.3671989 80.2480233,22.4304342 L80.1102261,22.4480907 C79.9534915,22.4690322 79.7963544,22.4858676 79.6372025,22.499418 L79.4744244,22.511326 C79.2729659,22.5244657 79.070702,22.5339099 78.8676322,22.5339099 C74.1571385,22.5339099 70.4668286,18.6092204 70.4668286,13.6021412 C70.4668286,8.36018815 75.101171,3.76290592 80.3846121,3.76290592 C85.0346682,3.76290592 88.8184549,7.67897244 88.8184549,12.4930612 C88.8184549,17.0127365 85.6749021,20.946049 81.5212387,22.1508031 Z" id="Shape"></path>
                    <path d="M84.6091886,17.769506 C84.3315794,18.2601949 84.0072321,18.7003777 83.6498454,19.0958031 C85.4802936,18.8096022 88.1077108,16.6624792 88.1077108,12.4922399 C88.1077108,8.07686154 84.6434368,4.48477285 80.3846121,4.48477285 C79.9297194,4.48477285 79.4780505,4.52501344 79.0340365,4.59933535 C79.9123938,4.77179503 80.7738291,5.09207728 81.5772441,5.56469891 C85.5455662,7.89947448 86.9291806,13.6727675 84.6091886,17.769506 Z" id="Shape"></path>
                    <path d="M67.6302981,12.7283454 C67.6302981,9.95667205 68.5920591,7.47243147 70.078417,5.50228494 C69.1323697,6.32968077 68.3354017,7.27820898 67.7552023,8.30352283 C64.8679045,13.3960108 67.35148,19.7807144 71.6078874,22.2854859 C72.2013826,22.6345114 72.8379904,22.9141425 73.499579,23.1334126 C70.1529569,20.8819926 67.6302981,17.1461875 67.6302981,12.7283454 Z" id="Shape"></path>
                </g>
            </g>
        </g>
    </g>
</svg>