<?xml version="1.0" encoding="UTF-8"?>
<svg width="49px" height="48px" viewBox="0 0 49 48" version="1.1" xmlns="http://www.w3.org/2000/svg" xmlns:xlink="http://www.w3.org/1999/xlink">
    <!-- Generator: Sketch 50.2 (55047) - http://www.bohemiancoding.com/sketch -->
    <title>Group</title>
    <desc>Created with Sketch.</desc>
    <defs></defs>
    <g id="Page-1" stroke="none" stroke-width="1" fill="none" fill-rule="evenodd">
        <g id="Sony---Landing" transform="translate(-575.000000, -2231.000000)" fill="#FFFFFF" fill-rule="nonzero">
            <g id="Call-to-Action-#5" transform="translate(0.000000, 2121.000000)">
                <g id="Group" transform="translate(575.000000, 110.000000)">
                    <path d="M48.132913,22.4574545 L25.959,0.639272727 C25.092,-0.213818182 23.6906087,-0.213818182 22.8236087,0.639272727 L0.649695652,22.4574545 C-0.217304348,23.3105455 -0.217304348,24.6894545 0.649695652,25.5425455 L22.8236087,47.3607273 C23.256,47.7861818 23.8236522,48 24.3913043,48 C24.9589565,48 25.5266087,47.7861818 25.959,47.3607273 L48.132913,25.5425455 C48.999913,24.6894545 48.999913,23.3105455 48.132913,22.4574545 Z M24.3913043,42.7330909 L5.35278261,24 L24.3913043,5.26690909 L43.4298261,24 L24.3913043,42.7330909 Z" id="Shape"></path>
                    <path d="M17.7391304,19.6363636 L17.7391304,34.9090909 L22.173913,34.9090909 L22.173913,19.6363636 C22.173913,18.4341818 23.1695217,17.4545455 24.3913043,17.4545455 C25.613087,17.4545455 26.6086957,18.4341818 26.6086957,19.6363636 L26.6086957,24 L24.3913043,24 L28.826087,30.5454545 L33.2608696,24 L31.0434783,24 L31.0434783,19.6363636 C31.0434783,16.0276364 28.0588696,13.0909091 24.3913043,13.0909091 C20.7237391,13.0909091 17.7391304,16.0276364 17.7391304,19.6363636 Z" id="Shape"></path>
                </g>
            </g>
        </g>
    </g>
</svg>