<?xml version="1.0" encoding="UTF-8"?>
<svg width="25px" height="25px" viewBox="0 0 25 25" version="1.1" xmlns="http://www.w3.org/2000/svg" xmlns:xlink="http://www.w3.org/1999/xlink">
    <!-- Generator: Sketch 50.2 (55047) - http://www.bohemiancoding.com/sketch -->
    <title>Group</title>
    <desc>Created with Sketch.</desc>
    <defs></defs>
    <g id="Page-1" stroke="none" stroke-width="1" fill="none" fill-rule="evenodd">
        <g id="Group-2" transform="translate(-8.000000, -7.000000)" fill="#63962F" fill-rule="nonzero">
            <g id="Group" transform="translate(8.000000, 7.000000)">
                <path d="M24.5664565,11.9680891 L13.4795,0.836363636 C13.046,0.401113173 12.3453043,0.401113173 11.9118043,0.836363636 L0.824847826,11.9680891 C0.391347826,12.4033395 0.391347826,13.1068646 0.824847826,13.542115 L11.9118043,24.6738404 C12.128,24.8909091 12.4118261,25 12.6956522,25 C12.9794783,25 13.2633043,24.8909091 13.4795,24.6738404 L24.5664565,13.542115 C24.9999565,13.1068646 24.9999565,12.4033395 24.5664565,11.9680891 Z M12.6956522,22.3128015 L3.1763913,12.755102 L12.6956522,3.1974026 L22.214913,12.755102 L12.6956522,22.3128015 Z" id="Shape"></path>
                <path d="M9.36956522,10.528757 L9.36956522,18.3209647 L11.5869565,18.3209647 L11.5869565,10.528757 C11.5869565,9.91539889 12.0847609,9.41558442 12.6956522,9.41558442 C13.3065435,9.41558442 13.8043478,9.91539889 13.8043478,10.528757 L13.8043478,12.755102 L12.6956522,12.755102 L14.9130435,16.0946197 L17.1304348,12.755102 L16.0217391,12.755102 L16.0217391,10.528757 C16.0217391,8.68756957 14.5294348,7.18923933 12.6956522,7.18923933 C10.8618696,7.18923933 9.36956522,8.68756957 9.36956522,10.528757 Z" id="Shape"></path>
            </g>
        </g>
    </g>
</svg>