<?xml version="1.0" encoding="UTF-8"?>
<svg width="32px" height="25px" viewBox="0 0 32 25" version="1.1" xmlns="http://www.w3.org/2000/svg" xmlns:xlink="http://www.w3.org/1999/xlink">
    <!-- Generator: Sketch 50.2 (55047) - http://www.bohemiancoding.com/sketch -->
    <title>Icon 32x32</title>
    <desc>Created with Sketch.</desc>
    <defs></defs>
    <g id="Page-1" stroke="none" stroke-width="1" fill="none" fill-rule="evenodd">
        <g id="1.1---Landing" transform="translate(-458.000000, -1138.000000)" fill="#DDDDDD">
            <g id="Content-#15" transform="translate(0.000000, 800.000000)">
                <g id="Switcher" transform="translate(0.000000, 335.000000)">
                    <path d="M459.249936,15.336 L476.860936,15.336 C477.175936,15.336 477.478936,15.218 477.709936,15.004 L488.348936,5.168 C488.726936,4.818 488.851936,4.273 488.663936,3.794 C488.476936,3.315 488.014936,3 487.499936,3 L469.887936,3 C469.572936,3 469.270936,3.118 469.038936,3.332 L458.400936,13.168 C458.023936,13.517 457.898936,14.062 458.085936,14.542 C458.273936,15.02 458.734936,15.336 459.249936,15.336 L459.249936,15.336 Z M470.376936,5.5 L484.306936,5.5 L476.371936,12.836 L462.442936,12.836 L470.376936,5.5 Z M459.249936,21.476 C458.559936,21.476 457.999936,20.917 457.999936,20.226 C457.999936,19.536 458.559936,18.976 459.249936,18.976 L478.221936,18.976 L487.228936,9.942 C487.715936,9.453 488.506936,9.451 488.995936,9.94 C489.483936,10.428 489.485936,11.219 488.997936,11.708 L479.624936,21.109 C479.390936,21.345 479.071936,21.476 478.739936,21.476 L459.249936,21.476 Z M489.632936,17.057 C490.120936,17.544 490.122936,18.335 489.635936,18.824 L480.854936,27.633 C480.618936,27.868 480.300936,28 479.968936,28 L459.249936,28 C458.559936,28 457.999936,27.44 457.999936,26.75 C457.999936,26.059 458.559936,25.5 459.249936,25.5 L479.449936,25.5 L487.863936,17.058 C488.353936,16.569 489.143936,16.567 489.632936,17.057 Z" id="Icon-32x32"></path>
                </g>
            </g>
        </g>
    </g>
</svg>