<?xml version="1.0" encoding="UTF-8"?>
<svg width="32px" height="28px" viewBox="0 0 32 28" version="1.1" xmlns="http://www.w3.org/2000/svg" xmlns:xlink="http://www.w3.org/1999/xlink">
    <!-- Generator: Sketch 50.2 (55047) - http://www.bohemiancoding.com/sketch -->
    <title>Group</title>
    <desc>Created with Sketch.</desc>
    <defs></defs>
    <g id="Page-1" stroke="none" stroke-width="1" fill="none" fill-rule="evenodd">
        <g id="1.1---Landing" transform="translate(-708.000000, -1136.000000)" fill="#DDDDDD" fill-rule="nonzero">
            <g id="Content-#15" transform="translate(0.000000, 800.000000)">
                <g id="Switcher" transform="translate(0.000000, 335.000000)">
                    <g id="Group" transform="translate(708.000000, 1.000000)">
                        <path d="M29.3333333,0 L2.66666667,0 C1.196,0 0,1.196 0,2.66666667 L0,20 C0,21.4706667 1.196,22.6666667 2.66666667,22.6666667 L14.6666667,22.6666667 L14.6666667,25.3333333 L9.33333333,25.3333333 L9.33333333,28 L22.6666667,28 L22.6666667,25.3333333 L17.3333333,25.3333333 L17.3333333,22.6666667 L29.3333333,22.6666667 C30.8053333,22.6666667 32,21.4706667 32,20 L32,2.66666667 C32,1.196 30.8053333,0 29.3333333,0 Z M29.3333333,2.66666667 L29.3306667,16 L2.66666667,16 L2.66666667,2.66666667 L29.3333333,2.66666667 Z M2.66666667,20 L2.66666667,18.6666667 L29.3293333,18.6666667 L29.3293333,20 L2.66666667,20 Z" id="Shape"></path>
                        <polygon id="Shape" points="11.9986667 4 11.9986667 14.6666667 22.6653333 9.33333333"></polygon>
                    </g>
                </g>
            </g>
        </g>
    </g>
</svg>